# xmcd
#
# Track frame offsets:
#	150
#	14625
#	30000
#	69677
#	90303
#	98780
#	117706
#	133794
#	166270
#	185397
#
# Disc length: 2696 seconds
#
# Revision: 1
# Processed by: cddbd v1.5.2PL0 Copyright (c) Steve Scherf et al.
# Submitted via: audiograbber 1.83.01
#
DISCID=7d0a860a
DTITLE=Soulmate - Shillong
DYEAR=2005
DGENRE=Blues
TTITLE0=Love You
TTITLE1=The Price
TTITLE2=If You Were My Guitar
TTITLE3=I Am
TTITLE4=My Baby
TTITLE5=Do You
TTITLE6=St. Valentine's Day Blues
TTITLE7=Shillong (Sier Lapalang)
TTITLE8=If You See My Baby
TTITLE9=Blues In My Soulmate
EXTD=
EXTT0=
EXTT1=
EXTT2=
EXTT3=
EXTT4=
EXTT5=
EXTT6=
EXTT7=
EXTT8=
EXTT9=
PLAYORDER=
